<svg width="102" height="102" viewBox="0 0 102 102" fill="none" xmlns="http://www.w3.org/2000/svg">
<ellipse rx="51" ry="51" transform="matrix(4.37114e-08 -1 -1 -4.37114e-08 51 51)" fill="#2D2D2D"/>
<path d="M37.1401 51.8471C36.9484 51.6483 36.9542 51.3318 37.1529 51.1401L40.3922 48.0165C40.591 47.8248 40.9075 47.8305 41.0992 48.0293C41.2909 48.2281 41.2851 48.5446 41.0864 48.7363L38.207 51.5129L40.9835 54.3922C41.1752 54.591 41.1695 54.9075 40.9707 55.0992C40.7719 55.2909 40.4554 55.2851 40.2637 55.0864L37.1401 51.8471ZM64.9909 52.4999L37.4909 51.9999L37.5091 51.0001L65.0091 51.5001L64.9909 52.4999Z" fill="white"/>
</svg>
