<svg width="240" height="307" viewBox="0 0 240 307" fill="none" xmlns="http://www.w3.org/2000/svg">
<path fill-rule="evenodd" clip-rule="evenodd" d="M88.559 166.08C85.2902 169.832 79.5479 176.442 75.7984 180.77C72.0489 185.098 65.9469 192.127 62.2386 196.391C58.5303 200.654 55.5412 204.282 55.5961 204.453C55.651 204.624 62.225 212.136 70.2047 221.146C78.1845 230.157 86.9946 240.124 89.7827 243.295C92.5708 246.466 97.3691 251.884 100.446 255.335C103.522 258.786 107.219 262.965 108.661 264.623C111.019 267.333 118.779 276.108 139.41 299.395C143.169 303.637 146.431 307.059 146.66 306.999C147.039 306.899 155.81 297.189 163.2 288.686C164.834 286.806 170.026 280.927 174.737 275.623C179.448 270.318 185.505 263.478 188.197 260.423C190.889 257.368 201.744 245.108 212.32 233.177C222.895 221.247 232.941 209.876 234.643 207.909L237.738 204.332L236.217 202.503C235.379 201.497 226.592 191.359 216.69 179.975L198.685 159.277L146.594 159.268L94.5023 159.259L88.559 166.08ZM85.041 192.973C85.5902 188.014 86.3107 181.58 86.6418 178.676C86.9729 175.771 87.2036 173.337 87.1543 173.266C87.1047 173.196 85.2137 176.998 82.9521 181.715C80.6905 186.433 77.4615 193.144 75.7767 196.63L72.7139 202.966L78.0121 203.083C82.2892 203.178 83.381 203.084 83.6764 202.596C83.8778 202.263 84.4921 197.933 85.041 192.973ZM80.6433 181.527C80.0108 182.863 77.4307 188.234 74.9101 193.461L70.3267 202.966L65.4585 203.078L60.5906 203.189L65.485 197.566C78.1901 182.971 81.5753 179.113 81.6798 179.106C81.7421 179.101 81.2757 180.191 80.6433 181.527ZM118.805 174.113L113.296 168.371C110.266 165.213 107.551 162.638 107.263 162.649C106.805 162.667 100.637 165.231 92.2477 168.889L89.6432 170.025L87.9378 185.583C86.9998 194.14 86.302 201.225 86.3869 201.328C86.5135 201.48 115.328 177.358 118.016 174.85L118.805 174.113ZM140.072 162.828C139.979 162.941 138.261 163.872 136.256 164.896L135.274 165.397C122.053 172.151 120.942 172.718 120.401 172.378C120.351 172.347 120.306 172.308 120.257 172.266C120.244 172.255 120.231 172.243 120.217 172.232C118.905 171.118 111.496 163.24 111.477 162.939C111.467 162.765 117.935 162.622 125.85 162.622C133.766 162.622 140.166 162.715 140.072 162.828ZM93.664 165.58C94.022 165.58 99.6209 163.126 99.8248 162.88C99.9419 162.738 99.0986 162.622 97.9505 162.622C96.0238 162.622 95.7718 162.736 94.6771 164.101C94.0248 164.914 93.5689 165.58 93.664 165.58ZM158.818 168.606C165.277 171.897 170.518 174.721 170.464 174.882C170.411 175.043 165.804 180.458 160.228 186.916C154.652 193.374 149.297 199.581 148.329 200.709L146.568 202.759L134.699 189.044C128.17 181.5 122.785 175.167 122.731 174.97C122.628 174.597 123.738 173.984 133.658 168.931C136.927 167.266 141.017 165.169 142.748 164.272C144.479 163.374 146.16 162.635 146.485 162.631C146.809 162.626 152.36 165.315 158.818 168.606ZM174.188 170.97C178.026 167.14 181.672 163.242 181.7 162.939C181.716 162.765 175.253 162.622 167.337 162.622C159.421 162.622 153.057 162.758 153.194 162.924C153.331 163.089 154.105 163.539 154.913 163.924C155.721 164.309 159.983 166.457 164.383 168.697L172.384 172.771L174.188 170.97ZM194.726 166.291C203.208 169.913 203.357 169.997 203.545 171.262C204.045 174.628 206.893 201.215 206.77 201.365C206.585 201.588 174.933 174.789 174.744 174.248C174.586 173.797 185.136 162.627 185.733 162.614C185.934 162.61 189.982 164.264 194.726 166.291ZM218.829 199.692C217.908 197.775 214.749 191.17 211.808 185.012C208.868 178.855 206.313 173.627 206.13 173.395C205.918 173.126 205.87 173.509 205.997 174.451C206.107 175.264 206.595 179.542 207.083 183.956C208.765 199.188 209.08 201.702 209.4 202.438C209.686 203.094 210.335 203.178 215.113 203.178H220.504L218.829 199.692ZM224.482 193.861L232.45 202.966L227.827 203.085C224.42 203.172 223.09 203.061 222.772 202.662C222.326 202.102 211.446 179.566 211.446 179.201C211.446 178.979 212.395 180.048 224.482 193.861ZM204.708 202.966L190.018 190.504C176.019 178.629 174.737 177.571 174.737 177.902C174.737 178.231 181.348 202.858 181.479 203.016C181.557 203.111 186.817 203.139 193.165 203.078L204.708 202.966ZM176.966 194.501C178.223 199.139 179.204 202.99 179.146 203.06C179.088 203.13 172.381 203.138 164.242 203.077L149.442 202.966L160.779 189.799L172.115 176.631L173.398 181.35C174.104 183.945 175.71 189.863 176.966 194.501ZM171.453 241.083C171.645 240.851 179.282 206.491 179.282 205.857C179.282 205.777 172.438 205.712 164.074 205.712C155.71 205.712 148.866 205.787 148.866 205.878C148.866 206.022 157.707 220.022 167.661 235.642C169.342 238.279 170.826 240.65 170.96 240.911C171.093 241.172 171.315 241.249 171.453 241.083ZM204.968 206.502C204.589 206.936 201.368 210.485 197.811 214.389C194.254 218.293 189.849 223.141 188.022 225.164C180.118 233.913 174.206 240.275 174.1 240.147C174.036 240.07 175.649 232.406 177.682 223.114C179.716 213.823 181.379 206.106 181.379 205.967C181.379 205.827 186.842 205.712 193.518 205.712C205.385 205.712 205.642 205.73 204.968 206.502ZM201.332 229.687C203.255 221.497 205.146 213.492 205.536 211.899C205.925 210.306 206.195 208.943 206.135 208.871C205.952 208.65 173.927 243.988 172.946 245.493C172.441 246.268 167.262 258.304 161.438 272.24C160.218 275.159 159.124 277.763 158.153 280.074C153.599 290.915 151.75 295.314 152.284 295.625C152.648 295.837 154.124 294.142 156.607 291.289L156.608 291.288C157.383 290.398 158.256 289.395 159.224 288.302C183.203 261.228 191.793 251.513 194.589 248.304L197.836 244.58L201.332 229.687ZM219.652 206.874C219.093 207.932 216.318 212.724 209.018 225.239C207.565 227.73 205.375 231.495 204.151 233.604C202.928 235.714 201.882 237.383 201.827 237.313C201.706 237.157 208.888 206.692 209.181 206.119C209.3 205.886 211.717 205.712 214.828 205.712H220.266L219.652 206.874ZM206.222 235.044C207.246 233.995 228.434 210.165 230.669 207.548L232.238 205.712H227.665C223.745 205.712 223.015 205.818 222.559 206.452C222.266 206.858 218.836 212.704 214.935 219.442C211.036 226.18 207.288 232.644 206.607 233.805C205.639 235.458 205.555 235.727 206.222 235.044ZM151.011 213.528C156.162 221.671 158.393 225.184 164.902 235.408C167.83 240.007 170.311 244.038 170.415 244.367C170.52 244.695 166.952 253.669 162.487 264.309C154.453 283.456 146.743 301.704 146.586 301.944C146.541 302.013 143.707 295.359 140.288 287.158C136.869 278.958 133.649 271.298 133.132 270.136C129.267 261.446 122.617 244.854 122.787 244.321C123.187 243.06 146.573 206.576 146.786 206.88C146.904 207.051 148.806 210.043 151.011 213.528ZM125.178 236.129C128.274 231.334 143.86 206.711 144.097 206.24C144.308 205.821 141.225 205.712 129.134 205.712C120.758 205.712 113.905 205.824 113.905 205.962C113.905 206.398 121.256 240.11 121.525 240.906C121.745 241.558 121.943 241.402 122.867 239.85C123.463 238.849 124.503 237.174 125.178 236.129ZM128.642 185.422C132.555 189.945 137.565 195.789 139.776 198.407L143.797 203.168L128.869 203.173L113.942 203.178L114.253 202.016C114.425 201.377 116 195.472 117.753 188.894C119.507 182.315 121.073 176.992 121.235 177.065C121.396 177.137 124.729 180.898 128.642 185.422ZM111.694 203.034C111.814 202.889 116.822 184.208 117.912 179.837C118.187 178.733 118.303 177.842 118.169 177.857C118.035 177.871 111.292 183.527 103.184 190.425L88.4426 202.966L100.004 203.078C106.363 203.139 111.623 203.119 111.694 203.034ZM115.415 222.892C117.469 232.341 119.104 240.127 119.049 240.194C118.959 240.301 90.6207 209.374 88.3923 206.737L87.526 205.712H99.6031H111.68L115.415 222.892ZM120.373 245.319L105.34 228.796C97.0719 219.709 89.56 211.437 88.6464 210.414C87.7329 209.391 86.9858 208.696 86.9858 208.871C86.9858 209.122 90.4064 223.829 94.8642 242.746C95.2131 244.227 95.7427 245.292 96.5136 246.064C97.138 246.69 98.8287 248.57 100.271 250.243C103.405 253.879 140.285 295.46 141.491 296.718C142.283 297.544 140.252 292.572 124.616 255.404L120.373 245.319ZM84.9284 209.726C85.4507 211.817 86.8306 217.615 87.9948 222.61C89.1593 227.606 90.4291 233.015 90.8168 234.63C91.3377 236.801 91.3933 237.406 91.0297 236.953C90.7591 236.616 88.1168 232.158 85.1577 227.046C82.1987 221.934 78.253 215.137 76.3896 211.941C74.5262 208.744 73.0016 206.03 73.0016 205.91C73.0016 205.789 75.4715 205.743 78.4904 205.807L83.9792 205.924L84.9284 209.726ZM86.8411 234.966C87.6703 235.754 85.6619 232.176 75.2789 214.373L70.3516 205.924L65.6459 205.818L60.9402 205.711L63.0378 208.147C67.2593 213.05 86.0101 234.176 86.8411 234.966Z" fill="black" fill-opacity="0.5"/>
<path fill-rule="evenodd" clip-rule="evenodd" d="M145.565 0.917768C145.098 1.72296 145.02 3.91337 145.02 16.322C145.02 30.3554 145.041 30.8015 145.72 31.24C146.187 31.5425 146.632 31.5543 147.062 31.2759C147.635 30.9059 147.731 30.0504 147.935 23.5514C148.312 11.5517 148.227 1.06478 147.747 0.485601C147.097 -0.300158 146.163 -0.115547 145.565 0.917768ZM199.093 31.7702C198.39 32.3912 196.796 38.8957 193.273 55.528C191.905 61.9865 190.321 69.2125 189.753 71.5866C189.186 73.9604 188.721 76.2078 188.721 76.58C188.721 77.2403 189.708 78.1321 190.438 78.1321C191.425 78.1321 192.429 74.2941 196.41 55.3197C197.409 50.5566 198.862 43.9981 199.639 40.7452C201.492 32.9886 201.553 32.5027 200.764 31.8049C199.976 31.1091 199.844 31.1065 199.093 31.7702ZM145.457 36.5802C145.113 36.7551 145.02 43.5714 145.02 68.6472C145.02 100.06 145.03 100.498 145.72 100.944C146.188 101.247 146.632 101.259 147.063 100.98C147.618 100.621 147.74 99.8081 147.936 95.1565C148.216 88.5033 148.159 47.5505 147.86 41.1676C147.646 36.5916 147.629 36.5194 146.768 36.4391C146.288 36.3944 145.698 36.4577 145.457 36.5802ZM90.8258 42.5668L90.0207 43.3547L95.0204 61.2717C97.7701 71.1258 100.244 79.6276 100.517 80.1645C100.833 80.7851 101.28 81.0931 101.743 81.0094C103.571 80.6795 103.504 80.3043 98.1693 61.1601C92.7155 41.5892 92.4672 40.9606 90.8258 42.5668ZM245.439 42.3294C245.244 42.62 243.247 47.3037 241 52.7382C236.887 62.6877 236.503 64.1464 237.838 64.7649C238.128 64.8997 238.611 64.8959 238.911 64.7565C239.211 64.6171 241.394 59.8231 243.761 54.1027C247.224 45.7331 248.007 43.5169 247.771 42.7518C247.444 41.694 246.035 41.4389 245.439 42.3294ZM27.7524 55.1385C27.4503 55.5039 27.2031 55.9602 27.2031 56.1528C27.2031 56.6792 29.6742 60.4897 36.3876 70.3168C41.773 78.2001 42.5627 79.1882 43.4783 79.1882C44.4045 79.1882 44.5086 79.0514 44.5086 77.8351C44.5086 76.6979 43.3158 74.7246 37.039 65.4784C32.2714 58.4548 29.3403 54.4748 28.9358 54.4748C28.5872 54.4748 28.0548 54.7735 27.7524 55.1385ZM223.518 95.0031C218.032 108.26 213.543 119.481 213.543 119.938C213.543 120.922 214.652 121.752 215.463 121.376C216.236 121.018 235.989 73.2422 235.85 72.067C235.77 71.3902 235.459 71.1283 234.618 71.0303L233.493 70.8989L223.518 95.0031ZM47.8998 84.1309C47.0968 85.1013 47.4915 86.4654 49.293 88.9443C50.9896 91.2796 54.2186 95.9587 68.4336 116.681C74.2105 125.102 74.959 125.87 76.0781 124.517C76.8087 123.634 76.5423 122.713 74.873 120.352C73.9797 119.088 69.6222 112.731 65.1899 106.225C60.7576 99.7194 55.7243 92.4004 54.005 89.9607C49.4391 83.482 48.8794 82.9472 47.8998 84.1309ZM187.016 85.2475C186.085 86.2457 181.821 105.424 182.317 106.382C182.884 107.474 184.064 107.462 184.65 106.356C185.394 104.955 189.477 86.6175 189.243 85.7278C188.967 84.6746 187.788 84.4203 187.016 85.2475ZM103.138 87.0881C102.907 87.3669 102.718 87.884 102.718 88.2371C102.718 89.3604 107.346 105.349 107.894 106.119C108.575 107.076 109.106 107.054 109.869 106.035C110.463 105.242 110.392 104.874 107.968 96.1382C106.461 90.7047 105.242 86.9677 104.93 86.8228C104.132 86.4527 103.598 86.5317 103.138 87.0881ZM284.411 93.446C277.442 102.778 276.482 104.174 276.478 104.979C276.471 106.041 277.103 106.859 277.929 106.859C278.629 106.859 288.822 93.2259 288.989 92.0667C289.109 91.2361 288.199 89.9607 287.486 89.9607C287.226 89.9607 285.842 91.5293 284.411 93.446ZM268.55 115.086C266.981 117.299 261.141 125.24 255.574 132.733C242.428 150.426 243.43 148.927 243.904 150.183C244.611 152.057 245.729 151.527 248.185 148.153C249.412 146.469 253.204 141.357 256.611 136.795C264.863 125.744 271.815 116.251 272.871 114.592C274.029 112.771 273.853 111.333 272.452 111.179C271.517 111.076 271.094 111.5 268.55 115.086ZM0.287308 115.936C-0.373448 116.898 0.136977 118.374 1.4952 119.427C2.88139 120.502 3.45474 120.601 4.05921 119.87C4.87973 118.879 4.52768 117.491 3.17401 116.379C1.68433 115.156 0.905062 115.037 0.287308 115.936ZM9.44314 123.419C8.14785 124.984 8.5041 125.347 25.3677 139.629C34.3571 147.243 42.5634 154.2 43.6042 155.09C44.645 155.98 45.7662 156.708 46.0958 156.708C46.9024 156.708 47.56 155.68 47.4198 154.638C47.3422 154.063 41.4636 148.833 29.126 138.363C19.1272 129.878 10.7028 122.931 10.4046 122.924C10.1063 122.917 9.67388 123.14 9.44314 123.419Z" fill="black" fill-opacity="0.5"/>
</svg>
