<svg width="40" height="40" viewBox="0 0 40 40" fill="none" xmlns="http://www.w3.org/2000/svg">
<path d="M19.5798 15.1375C17.1315 15.1375 15.1335 17.1355 15.1335 19.5838C15.1335 22.0321 17.1315 24.0302 19.5798 24.0302C22.028 24.0302 24.026 22.0321 24.026 19.5838C24.026 17.1355 22.028 15.1375 19.5798 15.1375ZM32.9152 19.5838C32.9152 17.7426 32.9319 15.918 32.8285 14.0801C32.7251 11.9453 32.2381 10.0507 30.677 8.48966C29.1127 6.92527 27.2214 6.44161 25.0867 6.33821C23.2455 6.2348 21.421 6.25148 19.5831 6.25148C17.7419 6.25148 15.9173 6.2348 14.0795 6.33821C11.9447 6.44161 10.0502 6.9286 8.48913 8.48966C6.92477 10.054 6.44112 11.9453 6.33772 14.0801C6.23431 15.9213 6.25099 17.7459 6.25099 19.5838C6.25099 21.4217 6.23431 23.2496 6.33772 25.0875C6.44112 27.2223 6.9281 29.1169 8.48913 30.678C10.0535 32.2424 11.9447 32.726 14.0795 32.8294C15.9207 32.9328 17.7452 32.9162 19.5831 32.9162C21.4243 32.9162 23.2488 32.9328 25.0867 32.8294C27.2214 32.726 29.116 32.239 30.677 30.678C32.2414 29.1136 32.7251 27.2223 32.8285 25.0875C32.9352 23.2496 32.9152 21.4251 32.9152 19.5838ZM19.5798 26.4251C15.7939 26.4251 12.7386 23.3697 12.7386 19.5838C12.7386 15.7979 15.7939 12.7425 19.5798 12.7425C23.3656 12.7425 26.4209 15.7979 26.4209 19.5838C26.4209 23.3697 23.3656 26.4251 19.5798 26.4251ZM26.7011 14.0601C25.8172 14.0601 25.1034 13.3463 25.1034 12.4623C25.1034 11.5784 25.8172 10.8646 26.7011 10.8646C27.585 10.8646 28.2988 11.5784 28.2988 12.4623C28.2991 12.6722 28.2579 12.8801 28.1777 13.0741C28.0975 13.2681 27.9799 13.4443 27.8314 13.5927C27.683 13.7411 27.5068 13.8588 27.3128 13.939C27.1189 14.0192 26.911 14.0604 26.7011 14.0601Z" fill="white"/>
</svg>
