<svg width="40" height="40" viewBox="0 0 40 40" fill="none" xmlns="http://www.w3.org/2000/svg">
<path d="M33.75 22.8409V32.5H27.8913V23.4659C27.8913 20.928 26.8949 19.6591 24.9022 19.6591C23.4275 19.6591 22.4112 20.3409 21.8533 21.7045C21.7337 21.9697 21.6739 22.4242 21.6739 23.0682V32.5H15.7554C15.7953 22.3106 15.7953 16.6856 15.7554 15.625H21.6739V18.0114L21.6141 18.0682H21.6739V18.0114C22.9493 16.1553 24.7228 15.2273 26.9946 15.2273C29.0272 15.2273 30.6612 15.8712 31.8967 17.1591C33.1322 18.447 33.75 20.3409 33.75 22.8409ZM9.59783 7.5C8.60145 7.5 7.79438 7.77462 7.17663 8.32386C6.55888 8.87311 6.25 9.56439 6.25 10.3977C6.25 11.2311 6.54891 11.9318 7.14674 12.5C7.74457 13.0682 8.52174 13.3523 9.47826 13.3523H9.53804C10.5344 13.3523 11.3415 13.0682 11.9592 12.5C12.577 11.9318 12.8859 11.2311 12.8859 10.3977C12.846 9.56439 12.5272 8.87311 11.9293 8.32386C11.3315 7.77462 10.5543 7.5 9.59783 7.5ZM6.54891 32.5H12.4674V15.625H6.54891V32.5Z" fill="white"/>
</svg>
