<svg width="32" height="32" viewBox="0 0 32 32" fill="none" xmlns="http://www.w3.org/2000/svg">
<path d="M24 16.9773V22H21.0174V17.3023C21.0174 15.9826 20.5101 15.3227 19.4957 15.3227C18.7449 15.3227 18.2275 15.6773 17.9435 16.3864C17.8826 16.5242 17.8522 16.7606 17.8522 17.0955V22H14.8391C14.8594 16.7015 14.8594 13.7765 14.8391 13.225H17.8522V14.4659L17.8217 14.4955H17.8522V14.4659C18.5014 13.5008 19.4043 13.0182 20.5609 13.0182C21.5957 13.0182 22.4275 13.353 23.0565 14.0227C23.6855 14.6924 24 15.6773 24 16.9773ZM11.7043 9C11.1971 9 10.7862 9.1428 10.4717 9.42841C10.1572 9.71402 10 10.0735 10 10.5068C10 10.9402 10.1522 11.3045 10.4565 11.6C10.7609 11.8955 11.1565 12.0432 11.6435 12.0432H11.6739C12.1812 12.0432 12.592 11.8955 12.9065 11.6C13.221 11.3045 13.3783 10.9402 13.3783 10.5068C13.358 10.0735 13.1957 9.71402 12.8913 9.42841C12.587 9.1428 12.1913 9 11.7043 9ZM10.1522 22H13.1652V13.225H10.1522V22Z" fill="#383838"/>
<rect x="0.5" y="0.5" width="31" height="31" rx="15.5" stroke="#383838"/>
</svg>
