<svg width="59" height="59" viewBox="0 0 59 59" fill="none" xmlns="http://www.w3.org/2000/svg">
<path d="M29.473 0.916992C13.7036 0.916992 0.917236 13.7033 0.917236 29.4727C0.917236 45.2421 13.7036 58.0285 29.473 58.0285C45.2424 58.0285 58.0287 45.2421 58.0287 29.4727C58.0287 13.7033 45.2424 0.916992 29.473 0.916992ZM38.658 29.9125L24.7371 40.0409C24.6607 40.0958 24.5708 40.1285 24.4771 40.1355C24.3834 40.1426 24.2895 40.1237 24.2058 40.0808C24.1222 40.038 24.052 39.973 24.0029 39.8928C23.9538 39.8127 23.9277 39.7206 23.9276 39.6266V19.3826C23.9272 19.2884 23.953 19.196 24.002 19.1156C24.051 19.0352 24.1213 18.9699 24.2052 18.927C24.289 18.8841 24.3831 18.8653 24.4769 18.8725C24.5708 18.8798 24.6609 18.913 24.7371 18.9683L38.658 29.0903C38.7238 29.1368 38.7774 29.1984 38.8144 29.27C38.8515 29.3415 38.8708 29.4209 38.8708 29.5014C38.8708 29.582 38.8515 29.6613 38.8144 29.7329C38.7774 29.8044 38.7238 29.866 38.658 29.9125V29.9125Z" fill="#383838"/>
</svg>
