<svg width="40" height="40" viewBox="0 0 40 40" fill="none" xmlns="http://www.w3.org/2000/svg">
<path d="M36.25 10.6137C35.0548 11.1399 33.7709 11.4954 32.4212 11.6561C33.8139 10.8282 34.8558 9.52506 35.3526 7.98994C34.0441 8.76213 32.612 9.30567 31.1186 9.59692C30.1144 8.53157 28.7842 7.82544 27.3347 7.58816C25.8851 7.35088 24.3972 7.59572 23.1021 8.28468C21.8069 8.97363 20.7769 10.0682 20.172 11.3983C19.5671 12.7285 19.4211 14.2198 19.7567 15.6409C17.1054 15.5086 14.5117 14.8239 12.144 13.6313C9.77626 12.4387 7.68739 10.7647 6.01295 8.71806C5.44041 9.69931 5.1112 10.837 5.1112 12.0486C5.11057 13.1394 5.38092 14.2134 5.89827 15.1755C6.41562 16.1375 7.16398 16.9578 8.07694 17.5636C7.01814 17.5301 5.98271 17.2458 5.05681 16.7345V16.8198C5.05671 18.3496 5.58932 19.8324 6.56428 21.0164C7.53923 22.2005 8.89648 23.013 10.4057 23.316C9.42352 23.5801 8.39375 23.619 7.39419 23.4298C7.82001 24.7461 8.64947 25.8972 9.76645 26.7218C10.8834 27.5465 12.232 28.0035 13.6234 28.0289C11.2614 29.8711 8.34444 30.8703 5.34165 30.866C4.80974 30.8661 4.27827 30.8352 3.75 30.7735C6.798 32.7206 10.3461 33.754 13.9698 33.75C26.2363 33.75 32.9422 23.6559 32.9422 14.9014C32.9422 14.617 32.935 14.3297 32.9221 14.0453C34.2265 13.1081 35.3524 11.9475 36.2471 10.618L36.25 10.6137Z" fill="white"/>
</svg>
