<svg width="160" height="160" viewBox="0 0 160 160" fill="none" xmlns="http://www.w3.org/2000/svg">
<path d="M80.473 51.917C64.7036 51.917 51.9172 64.7033 51.9172 80.4727C51.9172 96.2421 64.7036 109.028 80.473 109.028C96.2424 109.028 109.029 96.2421 109.029 80.4727C109.029 64.7033 96.2424 51.917 80.473 51.917ZM89.658 80.9125L75.7371 91.0409C75.6607 91.0958 75.5708 91.1285 75.4771 91.1355C75.3834 91.1426 75.2895 91.1236 75.2058 91.0808C75.1222 91.038 75.052 90.973 75.0029 90.8928C74.9538 90.8127 74.9277 90.7206 74.9276 90.6266V70.3826C74.9272 70.2884 74.953 70.196 75.002 70.1156C75.051 70.0352 75.1213 69.9699 75.2052 69.927C75.289 69.8841 75.3831 69.8653 75.4769 69.8725C75.5708 69.8798 75.6609 69.913 75.7371 69.9683L89.658 80.0903C89.7238 80.1368 89.7774 80.1984 89.8144 80.27C89.8515 80.3415 89.8708 80.4209 89.8708 80.5014C89.8708 80.582 89.8515 80.6613 89.8144 80.7329C89.7774 80.8044 89.7238 80.866 89.658 80.9125Z" fill="#383838"/>
<path d="M138.895 80.4726L152.396 82.0939L151.302 91.2128C151.195 92.1037 150.92 92.8416 150.478 93.4264C150.034 94.0244 149.471 94.4551 148.788 94.7187C148.105 94.9822 147.338 95.0629 146.486 94.9606C145.661 94.8615 144.942 94.5957 144.329 94.1633C143.717 93.7309 143.265 93.1717 142.976 92.4856C142.686 91.7996 142.593 91.0176 142.699 90.1398L143.491 83.5365L138.598 82.9488L138.895 80.4726ZM145.574 83.7866L144.848 89.8397C144.758 90.5865 144.886 91.1866 145.23 91.6399C145.587 92.0949 146.107 92.3632 146.788 92.4451C147.247 92.5001 147.651 92.4556 148 92.3115C148.35 92.1674 148.638 91.9295 148.863 91.5978C149.088 91.2792 149.23 90.8709 149.29 90.3731L150.016 84.32L145.574 83.7866Z" fill="#383838"/>
<path d="M136.989 95.688L149.773 100.323L148.923 102.668L138.186 98.7749L135.388 106.498L133.341 105.756L136.989 95.688Z" fill="#383838"/>
<path d="M133.138 105.975L140.762 119.005L139.149 121.403L124.2 119.262L125.725 116.995L128.973 117.487L133.392 110.918L131.713 108.094L133.138 105.975ZM134.558 112.872L131.222 117.832L135.297 118.476C135.465 118.51 135.687 118.547 135.961 118.589C136.246 118.638 136.537 118.69 136.833 118.746C137.122 118.813 137.389 118.866 137.634 118.903C137.89 118.949 138.067 118.98 138.166 118.999L138.254 118.868C138.094 118.633 137.911 118.35 137.703 118.02C137.5 117.708 137.307 117.403 137.125 117.106C136.936 116.819 136.791 116.586 136.689 116.407L134.558 112.872Z" fill="#383838"/>
<path d="M120.158 122.686L123.87 126.828L134.008 128.531L131.798 130.513L124.331 129.181L124.198 129.3L124.695 136.883L122.588 138.773L122.014 128.493L118.301 124.351L120.158 122.686Z" fill="#383838"/>
<path d="M104.902 132.853L116.071 142.791L113.536 143.909L106.723 137.675C106.496 137.487 106.253 137.262 105.994 137.001C105.728 136.758 105.471 136.518 105.223 136.281C104.962 136.05 104.744 135.85 104.569 135.682L104.425 135.746C104.425 135.977 104.426 136.257 104.428 136.588C104.435 136.932 104.438 137.283 104.439 137.644C104.444 138.016 104.448 138.353 104.451 138.655L104.443 147.917L102.035 148.979L102.24 134.027L104.902 132.853Z" fill="#383838"/>
<path d="M94.5773 136.803L97.7325 150.031L95.3066 150.61L92.1514 137.382L94.5773 136.803Z" fill="#383838"/>
<path d="M89.3136 138.34L89.8905 151.927L83.1667 152.212C81.5714 152.28 80.1894 152.081 79.0206 151.616C77.8517 151.15 76.9428 150.43 76.2938 149.453C75.6316 148.478 75.2686 147.238 75.2048 145.735C75.1415 144.246 75.3981 142.98 75.9747 141.938C76.5386 140.911 77.3832 140.115 78.5083 139.552C79.6341 139.003 80.9946 138.694 82.5898 138.626L89.3136 138.34ZM86.9109 140.543L82.7975 140.717C82.0328 140.75 81.3377 140.865 80.7121 141.064C80.0872 141.275 79.5518 141.575 79.106 141.964C78.6471 142.353 78.3041 142.83 78.0771 143.394C77.8375 143.973 77.7339 144.644 77.7664 145.409L77.7849 145.844C77.8179 146.622 77.978 147.282 78.2652 147.824C78.5398 148.38 78.9219 148.827 79.4117 149.162C79.8888 149.512 80.4477 149.765 81.0883 149.923C81.729 150.081 82.4317 150.143 83.1964 150.111L87.3098 149.936L86.9109 140.543Z" fill="#383838"/>
<path d="M72.889 138.321L69.8345 151.572L57.2013 148.657L57.6726 146.613L67.8756 148.966L68.6626 145.552L59.5397 143.448L60.011 141.404L69.1339 143.508L69.9875 139.805L59.6495 137.42L60.1208 135.375L72.889 138.321Z" fill="#383838"/>
<path d="M51.9819 130.905C53.4808 131.739 54.6438 132.689 55.471 133.753C56.2918 134.829 56.7429 135.986 56.8241 137.225C56.8875 138.468 56.5503 139.753 55.8126 141.079C55.062 142.428 54.1484 143.392 53.0715 143.971C51.9767 144.555 50.7559 144.781 49.4091 144.651C48.0623 144.52 46.6394 144.038 45.1405 143.203C43.6417 142.369 42.4818 141.414 41.661 140.338C40.8402 139.262 40.3949 138.108 40.3252 136.876C40.2375 135.649 40.5689 134.361 41.3195 133.012C42.0571 131.685 42.9766 130.725 44.0778 130.13C45.1611 129.539 46.3761 129.31 47.7229 129.44C49.0633 129.582 50.483 130.07 51.9819 130.905ZM50.9619 132.738C50.2355 132.334 49.5219 132.042 48.821 131.864C48.1137 131.697 47.4422 131.655 46.8065 131.739C46.1644 131.835 45.5779 132.075 45.0471 132.459C44.5048 132.837 44.038 133.377 43.6467 134.081L43.435 134.461C43.0437 135.165 42.8306 135.846 42.7956 136.506C42.749 137.16 42.8576 137.779 43.1212 138.364C43.3849 138.949 43.7773 139.492 44.2986 139.994C44.8135 140.507 45.4341 140.965 46.1605 141.37C46.8869 141.774 47.6037 142.06 48.311 142.227C49.0119 142.406 49.6802 142.453 50.3159 142.369C50.9516 142.285 51.5348 142.051 52.0656 141.667C52.5964 141.282 53.0575 140.739 53.4488 140.035L53.6605 139.655C54.0518 138.951 54.2707 138.273 54.3172 137.619C54.3637 136.965 54.2584 136.34 54.0012 135.744C53.7375 135.159 53.3483 134.61 52.8334 134.097C52.3121 133.596 51.6883 133.143 50.9619 132.738Z" fill="#383838"/>
<path d="M29.0122 109.258L13.9401 108.466L12.8246 105.8L22.8312 94.4857L23.8855 97.0056L21.6893 99.4487L24.7455 106.753L28.0266 106.902L29.0122 109.258ZM22.4723 106.653L20.1649 101.139L17.3865 104.19C17.2659 104.312 17.1129 104.476 16.9274 104.683C16.7298 104.894 16.5262 105.108 16.3164 105.325C16.1015 105.529 15.911 105.724 15.7448 105.908C15.5665 106.097 15.4424 106.227 15.3724 106.3L15.4336 106.446C15.7177 106.441 16.0547 106.443 16.4445 106.452C16.817 106.453 17.1773 106.459 17.5255 106.471C17.8685 106.47 18.1431 106.477 18.3492 106.491L22.4723 106.653Z" fill="#383838"/>
<path d="M23.0264 93.3374L9.53792 95.0625L8.32592 85.5792C8.23056 84.8331 8.28436 84.1611 8.4873 83.5631C8.68857 82.952 9.01128 82.4584 9.45543 82.0823C9.89958 81.7062 10.462 81.4746 11.1426 81.3876C11.6531 81.3223 12.1369 81.3602 12.5939 81.5013C13.0379 81.6441 13.4256 81.8672 13.757 82.1707C14.0868 82.4611 14.3521 82.8196 14.553 83.2463L14.6315 83.2362C14.671 82.7123 14.8096 82.2357 15.0474 81.8061C15.2835 81.3635 15.6164 81.0017 16.0461 80.7206C16.4741 80.4264 17.0022 80.2391 17.6305 80.1587C18.4682 80.0516 19.1862 80.1527 19.7845 80.462C20.368 80.7598 20.8308 81.2062 21.1729 81.801C21.5019 82.3975 21.7157 83.0819 21.8144 83.8541L23.0264 93.3374ZM20.629 91.1297L19.7834 84.513C19.7064 83.9109 19.5006 83.445 19.1658 83.1153C18.8162 82.7742 18.3142 82.6455 17.6597 82.7292C17.267 82.7794 16.9376 82.908 16.6714 83.115C16.4035 83.3089 16.2176 83.5722 16.1138 83.9047C15.9969 84.239 15.9677 84.6351 16.0262 85.0933L16.8593 91.6118L20.629 91.1297ZM14.8174 91.8729L14.0245 85.6686C13.9726 85.2628 13.8554 84.9186 13.673 84.6359C13.4889 84.3402 13.2485 84.1248 12.9519 83.9898C12.6536 83.8417 12.3277 83.7903 11.9743 83.8355C11.3853 83.9108 10.9751 84.1362 10.7437 84.5117C10.4992 84.8888 10.4121 85.3523 10.4824 85.9021L11.3029 92.3224L14.8174 91.8729Z" fill="#383838"/>
<path d="M22.5542 70.3723C22.2781 72.0654 21.7798 73.4816 21.0592 74.6208C20.3256 75.7579 19.3902 76.5747 18.2531 77.071C17.105 77.5522 15.7821 77.6706 14.2844 77.4262C12.7606 77.1776 11.5439 76.6448 10.6342 75.8279C9.71367 74.9958 9.08621 73.9241 8.75186 72.6127C8.4175 71.3013 8.38836 69.7991 8.66443 68.106C8.94049 66.4129 9.44532 64.9978 10.1789 63.8606C10.9125 62.7235 11.8468 61.9133 12.9819 61.43C14.106 60.9315 15.43 60.8066 16.9537 61.0552C18.4514 61.2996 19.6671 61.8389 20.6007 62.6731C21.5234 63.4922 22.1519 64.5574 22.4863 65.8688C22.8076 67.178 22.8302 68.6792 22.5542 70.3723ZM20.4834 70.0344C20.6172 69.2139 20.6492 68.4436 20.5794 67.7236C20.4966 67.0015 20.3078 66.3556 20.0129 65.7861C19.705 65.2144 19.2803 64.744 18.7389 64.3749C18.1995 63.9927 17.5326 63.7368 16.7382 63.6072L16.3084 63.5371C15.5139 63.4075 14.8003 63.4381 14.1676 63.629C13.5369 63.8069 12.9913 64.119 12.5308 64.5653C12.0703 65.0116 11.6926 65.565 11.3977 66.2255C11.0898 66.8839 10.869 67.6233 10.7352 68.4438C10.6014 69.2644 10.5759 70.0357 10.6587 70.7578C10.7285 71.4778 10.9108 72.1226 11.2057 72.6922C11.5006 73.2617 11.9187 73.7311 12.4602 74.1002C13.0017 74.4693 13.6696 74.7187 14.4641 74.8483L14.8938 74.9184C15.6883 75.0481 16.4008 75.0239 17.0315 74.8461C17.6622 74.6682 18.2142 74.3572 18.6878 73.913C19.1483 73.4667 19.5325 72.9143 19.8404 72.2559C20.1353 71.5954 20.3496 70.8549 20.4834 70.0344Z" fill="#383838"/>
<path d="M28.0115 54.0046C27.3202 55.4145 26.5259 56.48 25.6287 57.201C24.7372 57.9101 23.7695 58.2952 22.7255 58.3562C21.6697 58.4114 20.5613 58.1542 19.4003 57.5846L12.5054 54.2019L13.6033 51.9625L20.4626 55.3279C21.6473 55.9091 22.7309 56.0071 23.7134 55.6219C24.684 55.2309 25.4888 54.3837 26.1278 53.0804C26.7668 51.7771 26.9438 50.6219 26.6586 49.6148C26.3674 48.59 25.6295 47.787 24.4448 47.2058L17.5855 43.8404L18.6747 41.6188L25.5696 45.0016C26.7305 45.5712 27.6124 46.2905 28.2151 47.1595C28.806 48.0226 29.0912 49.0297 29.0706 50.1808C29.0558 51.32 28.7028 52.5946 28.0115 54.0046Z" fill="#383838"/>
<path d="M35.0094 42.6453L26.4117 35.1575L22.6172 39.5173L20.9604 38.0743L30.1866 27.4734L31.8435 28.9163L28.036 33.2911L36.6337 40.779L35.0094 42.6453Z" fill="#383838"/>
<path d="M44.7456 32.6243L37.7879 20.9407L45.6775 16.2391C46.4484 15.7797 47.2004 15.5467 47.9335 15.5399C48.678 15.5263 49.3631 15.7095 49.9886 16.0894C50.6142 16.4693 51.1464 17.0278 51.5853 17.7647C52.0106 18.479 52.2391 19.2108 52.2706 19.9601C52.3021 20.7093 52.1347 21.4082 51.7683 22.0567C51.4019 22.7051 50.8389 23.2557 50.0794 23.7083L44.3662 27.1129L46.888 31.3475L44.7456 32.6243ZM43.2927 25.3102L48.5298 22.1893C49.1759 21.8042 49.5734 21.3369 49.7223 20.7874C49.8644 20.2265 49.7599 19.6513 49.4088 19.0617C49.1725 18.6649 48.8906 18.3721 48.5631 18.1832C48.2356 17.9943 47.8716 17.9117 47.471 17.9354C47.0817 17.9523 46.6717 18.0891 46.241 18.3458L41.0039 21.4667L43.2927 25.3102Z" fill="#383838"/>
<path d="M57.1652 25.418L53.411 12.3481L62.8467 9.63597C63.7472 9.37715 64.5401 9.34146 65.2255 9.5289C65.9236 9.71269 66.5059 10.0671 66.9724 10.592C67.448 11.1006 67.7933 11.7291 68.0083 12.4774C68.2414 13.2891 68.2453 14.0912 68.0198 14.8837C67.8034 15.6599 67.3431 16.3277 66.6388 16.8871L70.9573 21.4537L68.294 22.2192L64.3866 18.0081L58.1468 19.8017L59.5622 24.729L57.1652 25.418ZM57.5731 17.8041L64.0601 15.9395C64.7323 15.7463 65.1958 15.4002 65.4506 14.9013C65.7055 14.4024 65.7437 13.8423 65.5651 13.2208C65.4449 12.8023 65.2605 12.4708 65.0118 12.2265C64.7722 11.9659 64.4702 11.7987 64.1058 11.7249C63.7413 11.6512 63.3309 11.6799 62.8743 11.8111L56.3873 13.6757L57.5731 17.8041Z" fill="#383838"/>
<path d="M80.5818 21.3508C78.8664 21.3309 77.3916 21.0499 76.1574 20.5077C74.9234 19.9523 73.9759 19.1496 73.315 18.0994C72.6675 17.0361 72.3525 15.7458 72.3701 14.2284C72.388 12.6846 72.7327 11.4019 73.4044 10.3803C74.0894 9.34569 75.0552 8.56507 76.3018 8.03844C77.5484 7.51181 79.0294 7.25843 80.7447 7.27829C82.4601 7.29816 83.9348 7.58577 85.1689 8.14113C86.4029 8.69649 87.3438 9.49919 87.9915 10.5492C88.6525 11.5862 88.9741 12.8766 88.9562 14.4205C88.9386 15.9379 88.5873 17.2205 87.9021 18.2683C87.2303 19.3031 86.2711 20.0838 85.0245 20.6104C83.778 21.1238 82.2971 21.3706 80.5818 21.3508ZM80.6061 19.2527C81.4374 19.2624 82.2037 19.1789 82.9052 19.0022C83.6068 18.8124 84.2172 18.5292 84.7362 18.1525C85.2554 17.7626 85.657 17.2723 85.9409 16.6818C86.2381 16.0914 86.3914 15.3937 86.4007 14.5888L86.4057 14.1534C86.415 13.3485 86.278 12.6475 85.9946 12.0503C85.7244 11.4533 85.3342 10.9606 84.824 10.5719C84.3138 10.1833 83.7101 9.8926 83.0129 9.69977C82.3159 9.49375 81.5517 9.38592 80.7204 9.3763C79.8892 9.36667 79.1227 9.45677 78.4211 9.64659C77.7196 9.82323 77.1094 10.0999 76.5903 10.4766C76.0713 10.8533 75.6698 11.3369 75.3858 11.9275C75.1018 12.518 74.9552 13.2158 74.9459 14.0207L74.9408 14.4561C74.9315 15.261 75.0619 15.9619 75.3322 16.5589C75.6024 17.1559 75.9925 17.6553 76.5025 18.0571C77.0127 18.4457 77.6163 18.743 78.3133 18.9491C79.0105 19.1419 79.7748 19.2431 80.6061 19.2527Z" fill="#383838"/>
<path d="M95.1912 22.923C94.1341 22.6364 93.2666 22.2303 92.5887 21.7048C91.9142 21.1665 91.4629 20.5109 91.2348 19.7381C91.0066 18.9653 91.0306 18.0694 91.3066 17.0505L91.3946 16.7257L93.7253 17.3575L93.6011 17.8161C93.3975 18.5675 93.4825 19.2127 93.8561 19.7514C94.2331 20.2775 94.8419 20.6544 95.6825 20.8823C96.5867 21.1274 97.3562 21.0626 97.991 20.6878C98.6384 20.3164 99.1002 19.6212 99.3762 18.6023L101.617 10.3298L104.005 10.9771L101.816 19.0586C101.492 20.2559 101.012 21.1924 100.378 21.8681C99.7601 22.5346 99.0109 22.9536 98.1305 23.1251C97.2663 23.2873 96.2865 23.2199 95.1912 22.923Z" fill="#383838"/>
<path d="M102.254 25.184L108.732 13.228L120.129 19.4079L119.13 21.2526L109.925 16.2615L108.256 19.3419L116.486 23.8046L115.487 25.6494L107.256 21.1866L105.446 24.528L114.772 29.5852L113.773 31.4299L102.254 25.184Z" fill="#383838"/>
<path d="M120.742 37.4979C119.493 36.3023 118.627 35.1076 118.144 33.914C117.661 32.7203 117.565 31.5416 117.857 30.3777C118.158 29.2043 118.842 28.0599 119.91 26.9445C121.479 25.3047 123.17 24.521 124.982 24.5936C126.803 24.6565 128.623 25.5596 130.444 27.3029C131.492 28.3068 132.275 29.3399 132.793 30.4021C133.31 31.4643 133.52 32.4959 133.42 33.4969C133.321 34.4979 132.869 35.4179 132.066 36.2568L130.294 34.5592C130.805 34.0253 131.072 33.4408 131.095 32.8055C131.128 32.1793 130.96 31.5249 130.591 30.8422C130.221 30.1595 129.684 29.4804 128.979 28.805C128.197 28.0566 127.397 27.5373 126.579 27.2471C125.77 26.966 124.967 26.9275 124.169 27.1316C123.38 27.3262 122.63 27.7953 121.918 28.5389L121.59 28.8821C120.86 29.6448 120.41 30.4294 120.241 31.2359C120.072 32.0423 120.155 32.8433 120.49 33.6388C120.834 34.4434 121.397 35.2199 122.178 35.9683C122.912 36.6711 123.623 37.197 124.312 37.5461C125.01 37.8856 125.666 38.0206 126.281 37.9512C126.914 37.8814 127.481 37.5843 127.983 37.06L129.727 38.7302C128.924 39.5691 128.025 40.0602 127.03 40.2032C126.034 40.3463 124.995 40.1822 123.911 39.7111C122.847 39.2396 121.79 38.5018 120.742 37.4979Z" fill="#383838"/>
<path d="M129.845 47.9266L139.574 41.9824L136.563 37.0494L138.437 35.9039L145.761 47.8986L143.886 49.0441L140.864 44.0942L131.135 50.0384L129.845 47.9266Z" fill="#383838"/>
<rect width="8.24761" height="8.25006" transform="matrix(0.965904 0.258902 -0.258737 0.965948 28.866 117.154)" fill="#383838"/>
<rect width="8.24813" height="8.24954" transform="matrix(0.865951 0.500128 -0.499872 0.866099 142.68 57.7515)" fill="#383838"/>
</svg>
